<?xml version="1.0" standalone="no"?>
<!DOCTYPE svg PUBLIC "-//W3C//DTD SVG 20010904//EN"
 "http://www.w3.org/TR/2001/REC-SVG-20010904/DTD/svg10.dtd">
<svg version="1.0" xmlns="http://www.w3.org/2000/svg"
 width="899.000000pt" height="548.000000pt" viewBox="0 0 899.000000 548.000000"
 preserveAspectRatio="xMidYMid meet">

<g transform="translate(0.000000,548.000000) scale(0.100000,-0.100000)"
fill="#000000" stroke="none">
<path d="M0 2740 l0 -2740 4495 0 4495 0 0 2740 0 2740 -4495 0 -4495 0 0
-2740z m4258 8 l-3 -2173 -55 -3 c-52 -3 -134 13 -155 30 -20 17 -86 58 -92
58 -4 0 -14 7 -23 15 -13 11 -24 13 -51 5 -59 -17 -163 -12 -226 12 -72 27
-171 121 -202 192 -27 62 -29 204 -4 268 14 38 70 103 130 150 34 26 120 48
190 48 l63 0 0 54 c0 33 -5 58 -12 63 -7 4 -146 8 -308 8 l-295 0 -3 1717 -2
1718 187 2 c104 2 340 4 526 6 l337 3 -2 -2173z m1502 -13 l0 -2185 -525 0
-525 0 0 2180 0 2180 173 3 c94 1 331 4 525 5 l352 2 0 -2185z m-3283 2086
c45 -23 53 -59 53 -221 l0 -150 -32 0 c-59 0 -68 19 -68 146 l0 114 -27 7
c-38 11 -329 10 -340 0 -4 -5 -9 -67 -11 -138 l-4 -130 -41 3 -42 3 0 157 0
158 28 27 c22 22 40 29 90 35 99 10 369 3 394 -11z m-1417 -216 l0 -195 -39 0
c-62 0 -71 21 -71 163 l0 118 -72 -3 -73 -3 -3 -102 -3 -103 -49 0 -50 0 0
105 0 105 -85 0 -85 0 0 -140 0 -140 -45 0 -45 0 0 195 0 195 310 0 310 0 0
-195z m1428 -245 c12 -8 28 -27 35 -42 6 -16 15 -28 19 -28 5 0 8 -56 8 -125
0 -77 -4 -125 -10 -125 -5 0 -10 -7 -10 -16 0 -8 -13 -29 -29 -45 l-29 -29
-211 0 c-115 0 -221 4 -234 9 -33 13 -67 50 -67 73 0 10 -4 18 -10 18 -6 0
-10 45 -10 115 0 70 4 115 10 115 6 0 10 6 10 14 0 8 11 28 24 43 21 24 34 29
98 34 135 12 380 5 406 -11z m-1927 -42 c44 -23 79 -45 79 -50 0 -4 5 -8 10
-8 6 0 28 -11 50 -25 l40 -25 57 25 c31 14 60 29 63 34 11 16 143 71 171 71
28 0 29 -1 29 -53 l0 -53 -82 -37 c-46 -20 -89 -37 -95 -37 -7 0 -13 -4 -13
-8 0 -5 -12 -15 -27 -22 l-28 -12 35 -15 c101 -44 150 -67 150 -73 0 -3 14
-11 30 -17 28 -11 30 -14 30 -67 0 -55 0 -56 -29 -56 -16 0 -36 6 -44 14 -17
17 -218 116 -235 116 -19 0 -212 -102 -234 -122 -10 -10 -32 -18 -48 -18 -30
0 -30 1 -30 54 0 44 4 56 18 60 10 4 27 15 38 25 11 10 58 35 105 56 46 21 86
39 88 41 2 2 -8 8 -23 14 -15 5 -32 15 -39 21 -6 6 -50 30 -97 53 l-85 42 -3
57 c-3 53 -1 57 19 57 12 0 57 -19 100 -42z m7069 -428 c63 -5 144 -16 180
-23 95 -21 228 -67 233 -81 4 -10 -48 -25 -191 -56 -109 -24 -199 -46 -202
-50 -3 -4 -17 -10 -32 -14 l-28 -6 0 -105 c0 -98 1 -105 20 -105 11 0 20 -4
20 -8 0 -5 39 -19 88 -31 281 -70 315 -81 255 -81 -17 0 -33 -4 -35 -9 -2 -8
-300 -91 -323 -91 -3 0 -5 -13 -5 -30 0 -16 -4 -30 -8 -30 -16 0 -42 -71 -42
-114 0 -50 -2 -49 98 -67 39 -7 72 -16 72 -20 0 -3 60 -19 133 -35 l132 -29
-67 -3 -68 -3 0 -119 0 -120 -149 0 -149 0 -7 -39 -6 -39 -272 -4 -272 -3 -58
-28 c-82 -41 -110 -87 -115 -190 -6 -105 3 -140 43 -183 19 -20 35 -41 35 -45
0 -5 -16 -9 -35 -9 l-35 0 0 -115 0 -115 375 0 375 0 0 120 0 120 -259 0 -259
0 -32 32 c-53 53 -54 130 -1 161 26 15 60 17 280 17 249 0 250 0 262 -22 7
-13 18 -27 25 -31 8 -4 14 -13 14 -19 0 -15 40 -58 54 -58 6 0 37 23 69 52 57
51 57 51 39 72 -29 32 -52 101 -52 153 0 59 33 129 71 148 61 32 59 38 59
-216 l0 -232 113 5 c87 4 124 10 167 28 64 27 134 97 151 150 7 19 17 38 23
42 15 10 15 236 0 246 -6 4 -17 24 -25 45 -15 44 -74 117 -93 117 -7 0 -21 8
-32 18 -10 9 -30 23 -44 30 l-25 13 25 -6 c14 -3 43 -8 65 -12 22 -3 42 -10
45 -14 3 -4 25 -11 48 -15 l42 -7 0 116 0 115 -67 7 c-38 4 -70 10 -73 14 -3
4 -71 18 -152 31 -82 13 -148 24 -148 25 0 2 53 15 118 31 64 15 119 30 122
34 3 4 49 17 103 30 l97 24 0 82 0 81 -42 7 c-23 4 -45 10 -48 14 -3 4 -68 23
-145 41 -77 19 -158 38 -180 44 l-40 10 40 8 c22 4 54 8 72 8 17 1 33 5 35 10
2 5 70 19 152 31 82 11 153 23 158 26 8 5 156 -140 230 -228 21 -23 49 -65 64
-93 14 -27 31 -54 38 -60 24 -18 86 -174 107 -265 6 -24 14 -47 19 -50 16 -10
40 -205 40 -325 0 -115 -24 -314 -38 -325 -5 -3 -19 -41 -32 -85 -12 -44 -33
-103 -46 -132 -13 -28 -24 -56 -24 -60 0 -5 -8 -16 -17 -25 -10 -9 -33 -43
-52 -76 -18 -33 -45 -73 -60 -90 -14 -16 -44 -51 -66 -78 -22 -26 -51 -58 -65
-70 -14 -12 -43 -38 -65 -58 -22 -19 -46 -36 -52 -36 -7 0 -13 -4 -13 -10 0
-11 -64 -53 -135 -89 -27 -13 -52 -27 -55 -31 -18 -23 -222 -92 -310 -106 -25
-4 -47 -11 -50 -15 -3 -4 -45 -11 -94 -15 -85 -7 -89 -6 -83 12 22 67 33 94
39 94 5 0 8 47 8 105 0 58 -3 105 -8 105 -4 0 -17 26 -30 58 -28 71 -66 113
-120 135 -88 35 -160 17 -226 -55 -38 -43 -86 -156 -86 -205 0 -13 -3 -23 -8
-23 -4 0 -16 -24 -26 -52 -27 -76 -58 -89 -101 -42 -36 38 -36 124 -1 159 13
13 36 27 50 31 26 6 26 6 26 116 l0 110 -37 -7 c-38 -7 -113 -43 -113 -55 0
-3 -15 -22 -34 -42 -39 -41 -66 -121 -66 -197 l0 -50 -30 12 c-43 19 -276 229
-305 277 -41 66 -58 90 -65 90 -5 0 -32 48 -61 108 -29 59 -55 109 -59 112
-13 10 -59 168 -75 260 -25 137 -23 373 4 509 21 106 58 232 71 241 4 3 20 34
36 70 15 36 38 82 51 102 13 21 23 42 23 48 0 5 3 10 8 10 4 0 28 27 52 60 42
56 165 190 176 190 2 0 28 19 58 43 97 77 115 88 221 138 28 13 51 27 53 31 5
10 150 56 237 74 58 13 167 26 270 32 11 1 72 -3 135 -8z m-5100 -105 c0 -52
-2 -57 -32 -75 -18 -10 -39 -24 -46 -31 -8 -6 -41 -25 -75 -41 -108 -53 -142
-71 -148 -80 -3 -4 -21 -16 -41 -25 -36 -18 -34 -18 153 -14 l189 3 0 -56 0
-56 -285 0 -285 0 0 55 c0 49 3 56 28 72 15 10 29 21 32 25 3 4 50 30 105 57
54 28 101 54 104 59 3 5 28 21 56 36 l50 26 -188 0 -187 0 0 50 0 50 285 0
285 0 0 -55z m-1470 -40 l0 -55 -310 0 -310 0 0 55 0 55 310 0 310 0 0 -55z
m-2 -372 l2 -233 -39 0 c-54 0 -71 25 -71 107 l0 63 -255 0 -255 0 0 55 0 55
255 0 255 0 0 88 c0 49 3 92 7 96 4 4 28 6 53 4 l45 -3 3 -232z m1472 -263 l0
-180 -32 0 c-58 0 -68 20 -68 140 l0 107 -72 6 c-40 2 -76 3 -80 0 -5 -2 -8
-40 -8 -84 l0 -79 -50 0 -50 0 0 85 0 85 -105 0 -105 0 0 50 0 50 285 0 285 0
0 -180z m5507 -216 c-3 -3 -12 -4 -19 -1 -8 3 -5 6 6 6 11 1 17 -2 13 -5z m50
-10 c-3 -3 -12 -4 -19 -1 -8 3 -5 6 6 6 11 1 17 -2 13 -5z m-5557 -73 c0 -28
-4 -52 -9 -56 -5 -3 -134 -2 -285 2 l-276 6 0 49 0 48 285 0 285 0 0 -49z
m5577 -181 c1 0 9 -13 18 -30 17 -33 20 -112 5 -140 -10 -20 -59 -40 -96 -40
-24 0 -24 1 -24 120 l0 119 48 -14 c26 -8 48 -15 49 -15z m-5654 9 c28 -8 42
-19 57 -49 17 -34 20 -59 20 -190 l0 -150 -31 0 c-56 0 -68 29 -69 157 l0 113
-27 7 c-38 10 -329 10 -340 0 -4 -5 -10 -49 -11 -97 l-4 -89 114 -3 113 -3 3
-52 3 -53 -160 0 -161 0 0 154 c0 158 4 182 39 226 17 21 31 26 88 31 118 10
326 9 366 -2z m4978 -1065 c7 -9 13 -39 13 -67 1 -59 -23 -97 -61 -97 -21 0
-23 -4 -23 -55 0 -54 0 -55 -30 -55 -16 0 -30 5 -30 10 0 6 -9 10 -20 10 -17
0 -18 3 -10 26 6 14 17 60 26 102 9 43 22 92 29 110 12 28 18 32 53 32 24 0
45 -6 53 -16z m-5385 -209 c8 -19 21 -19 39 -1 21 21 66 8 64 -18 -3 -44 0
-51 14 -34 20 27 49 26 64 -2 11 -21 10 -27 -2 -36 -22 -16 -18 -24 9 -24 27
0 35 -13 28 -47 -3 -14 -11 -23 -23 -23 -11 0 -19 -4 -19 -10 0 -5 7 -10 15
-10 16 0 20 -27 6 -49 -6 -9 -18 -11 -34 -7 -31 7 -45 -9 -20 -23 16 -8 15
-11 -7 -30 -30 -25 -49 -26 -57 -5 -4 12 -8 11 -17 -7 -16 -33 -70 -33 -74 -1
-4 25 -12 28 -30 10 -9 -9 -17 -8 -37 2 -25 13 -35 40 -15 40 6 0 10 5 10 10
0 6 -13 10 -29 10 -36 0 -54 36 -27 55 20 15 21 35 1 35 -9 0 -15 9 -15 25 0
20 5 25 26 25 22 0 24 2 14 14 -6 8 -10 25 -8 38 3 20 8 23 40 21 30 -2 36 1
31 14 -4 9 1 21 12 29 24 18 34 18 41 -1z m414 -55 c0 -11 5 -20 10 -20 6 0
10 7 10 15 0 8 3 15 6 15 11 0 34 -29 34 -44 0 -8 10 -16 22 -18 32 -4 35 -36
6 -47 -18 -8 -19 -10 -5 -10 14 -1 18 -8 15 -28 -2 -23 -7 -28 -27 -25 -19 2
-21 -1 -12 -11 16 -19 -12 -57 -30 -40 -9 9 -15 9 -25 -2 -13 -13 -54 -10 -54
4 0 4 -12 7 -27 6 -23 0 -28 4 -26 22 2 16 -2 21 -12 17 -20 -8 -32 25 -14 37
11 7 12 12 2 29 -18 28 -16 40 6 40 14 0 17 6 13 26 -4 25 -3 26 22 22 20 -4
26 -1 26 13 0 14 7 19 30 19 23 0 30 -4 30 -20z m-1683 -43 c61 -16 114 -58
138 -109 21 -45 14 -68 -20 -68 -18 0 -32 11 -49 38 -43 65 -52 71 -103 83
-55 13 -135 5 -155 -15 -7 -7 -26 -21 -42 -31 -38 -25 -56 -71 -56 -145 0 -58
28 -140 48 -140 5 0 24 -14 43 -31 33 -30 36 -31 120 -27 l86 4 47 47 c52 52
50 51 77 37 43 -23 9 -84 -68 -122 -109 -53 -276 -32 -346 46 -37 41 -67 99
-67 131 0 14 -4 25 -10 25 -5 0 -10 14 -10 30 0 17 4 30 9 30 5 0 11 17 15 39
8 50 63 132 101 150 89 44 153 51 242 28z m261 -226 c8 -5 12 -17 10 -27 -3
-15 -15 -20 -68 -25 -130 -13 -210 -10 -217 7 -10 27 14 37 109 44 139 10 152
10 166 1z m1310 -18 c4 -30 16 -29 31 3 10 23 16 26 43 20 18 -3 40 -14 50
-23 16 -15 17 -18 3 -39 -24 -37 -18 -50 10 -20 27 29 29 30 54 16 17 -9 48
-67 40 -74 -2 -1 -15 -10 -29 -20 l-25 -17 30 2 c42 4 55 -7 55 -45 0 -34 -21
-63 -39 -52 -5 3 -17 3 -26 0 -14 -6 -11 -10 14 -20 45 -19 40 -63 -10 -90
-26 -13 -32 -13 -55 3 l-26 17 6 -32 c7 -28 5 -32 -18 -38 -14 -3 -26 -10 -26
-15 0 -5 -11 -9 -24 -9 -17 0 -27 9 -37 33 l-14 32 -5 -35 c-5 -34 -6 -35 -50
-35 -48 0 -54 10 -35 60 6 16 3 16 -13 -4 -19 -24 -21 -24 -58 -10 -44 17 -50
39 -16 54 12 5 22 14 22 19 0 8 -18 5 -52 -9 -13 -5 -20 -1 -27 17 -20 52 -17
72 9 78 l25 6 -27 7 c-31 8 -36 34 -18 82 9 24 14 26 43 20 l32 -7 -23 24 -22
25 21 26 c22 29 66 36 87 15 15 -15 16 -3 2 22 -13 25 12 41 60 37 28 -1 36
-7 38 -24z"/>
<path d="M3699 1269 c-21 -4 -55 -18 -77 -29 -76 -40 -80 -70 -10 -70 23 0 57
-9 79 -22 36 -20 39 -25 39 -65 0 -36 3 -43 20 -43 15 0 20 7 20 25 0 17 9 29
30 40 29 15 30 17 30 89 0 68 -2 74 -22 80 -30 7 -64 6 -109 -5z"/>
<path d="M3544 1133 c-27 -5 -34 -29 -34 -114 0 -50 6 -77 26 -117 26 -52 26
-52 74 -52 57 0 80 18 80 61 0 53 16 69 65 69 37 0 44 -3 47 -22 2 -12 9 -23
16 -26 9 -3 12 16 12 72 0 81 -10 95 -32 46 -11 -27 -18 -30 -55 -30 -40 0
-43 2 -43 28 0 46 -11 69 -36 81 -24 11 -77 13 -120 4z"/>
<path d="M3737 933 c-4 -3 -7 -21 -7 -40 0 -18 -4 -33 -9 -33 -5 0 -11 -9 -14
-19 -5 -20 -71 -45 -91 -35 -6 3 0 -4 14 -15 37 -31 87 -43 165 -39 77 3 73
-2 58 78 -10 55 -92 128 -116 103z"/>
<path d="M2067 4261 c-15 -16 -17 -33 -15 -107 l3 -89 173 -3 c109 -1 180 1
193 8 18 10 19 19 17 98 l-3 87 -52 3 c-29 2 -53 7 -53 13 0 5 -52 9 -122 8
-105 0 -126 -3 -141 -18z"/>
<path d="M2031 1244 c-29 -37 -27 -79 5 -100 37 -25 76 -9 90 36 14 43 9 57
-27 75 -38 20 -44 19 -68 -11z"/>
<path d="M2423 1233 c-21 -8 -16 -60 6 -66 23 -6 35 2 44 27 12 31 -16 53 -50
39z"/>
<path d="M2303 890 c-45 -18 -57 -86 -23 -120 47 -47 150 -9 150 56 -1 48 -75
86 -127 64z"/>
</g>
</svg>
